<svg width="100vw" xmlns="http://www.w3.org/2000/svg" viewBox="0 0 200 200"
    preserveAspectRatio="none">
    <path fill="#3F9EFF"
        opacity="0.5"
        d="M36.6,-68C44.5,-58.8,45.9,-43.1,50.5,-30.7C55.1,-18.2,62.7,-9.1,67.8,2.9C72.8,14.9,75.3,29.9,71.3,43.4C67.3,56.8,57,68.8,44.1,72.5C31.1,76.2,15.6,71.5,0.7,70.2C-14.1,69,-28.2,71.2,-36.6,64.9C-44.9,58.5,-47.4,43.7,-55.3,31.5C-63.2,19.2,-76.4,9.6,-79.1,-1.6C-81.9,-12.8,-74.1,-25.6,-64,-33.9C-53.9,-42.3,-41.4,-46.2,-30.4,-53.6C-19.3,-60.9,-9.6,-71.8,2.3,-75.8C14.3,-79.9,28.7,-77.2,36.6,-68Z"
        transform="translate(100 100)" />
</svg>