<?xml version="1.0" encoding="UTF-8"?>
<svg id="PetSpot" xmlns="http://www.w3.org/2000/svg" viewBox="0 0 471.29 74.73">
  <defs>
    <style>
      .cls-1 {
        fill: #009639;
      }

      .cls-2 {
        fill: none;
      }
    </style>
  </defs>
  <g id="Spot">
    <path class="cls-1" d="m317.9,57.9c-.96,0-2.44.04-4.42.13-1.98.08-4.07.11-6.25.08-2.18-.03-4.24-.13-6.16-.3-1.93-.17-3.31-.48-4.17-.93-.62-.34-1.13-.84-1.53-1.49-.4-.65-.68-1.32-.85-2-.23-.74-.34-1.54-.34-2.42s.1-1.74.3-2.59c.2-.85.51-1.63.93-2.34.42-.71.98-1.26,1.66-1.66.62-.28,1.26-.48,1.91-.6.65-.11,1.29-.17,1.91-.17,1.59-.06,3.16.03,4.72.25,1.56.23,3.13.34,4.72.34.57,0,1.13-.01,1.7-.04.57-.03,1.08-.16,1.53-.38.91-.4,1.46-1.05,1.66-1.96.2-.91.1-1.81-.3-2.72-.23-.45-.52-.86-.89-1.23-.37-.37-.75-.69-1.15-.98-1.19-.91-2.48-1.63-3.87-2.17-1.39-.54-2.76-1.12-4.12-1.74-1.47-.74-2.89-1.59-4.25-2.55-1.36-.96-2.58-2.07-3.66-3.31-.79-.96-1.43-2.05-1.91-3.27-.48-1.22-.86-2.45-1.15-3.7-.4-1.81-.52-3.67-.38-5.57.14-1.9.58-3.73,1.32-5.48.45-1.08,1.01-2.11,1.66-3.1.65-.99,1.46-1.83,2.42-2.51,1.19-.79,2.49-1.4,3.91-1.83,1.42-.42,2.83-.72,4.25-.89,2.32-.28,4.63-.37,6.93-.25,2.29.11,4.58.37,6.84.76,1.13.17,2.27.33,3.4.47,1.13.14,2.27.35,3.4.64,2.1.62,3.91,1.79,5.44,3.49.34.4.65.79.94,1.19.28.4.48.82.59,1.28.23.96.3,1.97.21,3.02-.08,1.05-.33,2.04-.72,2.97-.4.93-.92,1.77-1.57,2.51-.65.74-1.43,1.27-2.34,1.61-.79.28-1.6.41-2.42.38-.82-.03-1.63-.13-2.42-.3-1.64-.34-3.26-.83-4.85-1.49-1.59-.65-3.23-1.12-4.93-1.4-.74-.11-1.49-.18-2.25-.21-.77-.03-1.46.1-2.08.38-.85.4-1.4,1.01-1.66,1.83s-.1,1.63.47,2.42c.4.51.82.88,1.28,1.11.17.11.54.3,1.11.55.57.26,1.16.53,1.78.81.62.28,1.22.55,1.79.81s.94.41,1.11.47c1.87.79,3.73,1.64,5.57,2.55,1.84.91,3.58,1.93,5.23,3.06,1.13.85,2.21,1.84,3.23,2.97,1.02,1.13,1.76,2.38,2.21,3.74.45,1.42.77,2.89.94,4.42s.14,3.03-.08,4.5c-.45,2.38-1.36,4.56-2.72,6.54-.57.79-1.23,1.52-2,2.17s-1.6,1.23-2.51,1.74c-2.83,1.47-5.86,2.27-9.09,2.38Z"/>
    <path class="cls-1" d="m354.7,74.05c-2.61.74-5.16.88-7.65.42-.79-.11-1.57-.33-2.34-.64-.76-.31-1.43-.78-2-1.4-.45-.51-.82-1.21-1.11-2.08-.28-.88-.48-1.81-.59-2.8-.11-.99-.16-1.97-.13-2.93.03-.96.13-1.79.3-2.46,1.36-4.93,2.15-9.95,2.38-15.04.23-5.1.25-10.23.08-15.38-.91-.17-1.81-.31-2.72-.43-.91-.11-1.79-.34-2.63-.68-1.08-.34-1.9-1.02-2.47-2.04-.45-.74-.79-1.63-1.02-2.68-.23-1.05-.31-2.11-.25-3.19.06-1.08.24-2.11.55-3.1.31-.99.78-1.83,1.4-2.51.62-.68,1.36-1.26,2.21-1.74.85-.48,1.76-.83,2.72-1.06,2.04-.45,4.15-.72,6.33-.81,2.18-.08,4.26.21,6.25.89.79.23,1.54.54,2.25.93.71.4,1.26.93,1.66,1.62.28.62.42,1.29.42,2v2.08c1.64-1.98,3.66-3.51,6.04-4.59,2.15-.91,4.42-1.29,6.8-1.15,2.38.14,4.62.78,6.71,1.91,1.81,1.02,3.26,2.29,4.33,3.83.79,1.02,1.42,2.12,1.87,3.31.45,1.19.82,2.44,1.11,3.74.45,2.15.64,4.31.55,6.46-.08,2.15-.33,4.28-.72,6.38-.57,3.17-1.88,6.06-3.95,8.67-2.07,2.61-4.55,4.56-7.44,5.87-1.53.74-3.06,1.13-4.59,1.19-1.59.11-3.19,0-4.8-.34-1.61-.34-3.16-.82-4.63-1.44,0,.62.01,1.66.04,3.1.03,1.44.03,2.96,0,4.55-.03,1.59-.08,3.09-.17,4.5-.08,1.42-.24,2.41-.47,2.98-.34.96-.91,1.81-1.7,2.55-.79.74-1.67,1.25-2.64,1.53Zm7.14-33.24c.23.91.65,1.69,1.27,2.34.62.65,1.36.81,2.21.47.91-.4,1.69-1,2.34-1.83.65-.82,1.2-1.69,1.66-2.59.51-1.19.88-2.46,1.11-3.83.23-1.36.2-2.69-.08-3.99-.11-.62-.31-1.22-.6-1.79-.28-.57-.71-.99-1.27-1.28-.74-.28-1.53-.16-2.38.38-.85.54-1.5,1.15-1.96,1.83-1.02,1.47-1.77,3.13-2.25,4.97-.48,1.84-.5,3.61-.04,5.31Z"/>
    <path class="cls-1" d="m431.8,34.78c-.12-1.3-.32-2.56-.6-3.78-.28-1.22-.62-2.43-1.02-3.61-.91-2.95-2.46-5.42-4.67-7.4-1.36-1.25-2.9-2.28-4.6-3.1-1.69-.82-3.45-1.49-5.26-2-2.38-.74-4.89-1.08-7.53-1.02-2.63.06-5.14.54-7.52,1.44-2.1.8-4.02,1.95-5.78,3.45-1.76,1.5-3.26,3.16-4.51,4.97-.9,1.36-1.57,2.83-1.99,4.42-.43,1.59-.75,3.17-.98,4.76-.28,2.21-.35,4.43-.21,6.67.14,2.24.58,4.41,1.31,6.5.8,2.1,1.92,4.04,3.36,5.83,1.45,1.78,3.13,3.21,5.06,4.29,1.64.96,3.39,1.67,5.23,2.12,1.84.46,3.67.77,5.48.94,2.27.23,4.56.17,6.88-.17,2.33-.34,4.51-.99,6.55-1.95,1.47-.69,2.81-1.58,3.99-2.68,1.2-1.11,2.21-2.31,3.07-3.61,1.53-2.33,2.6-4.91,3.22-7.74.63-2.83.8-5.61.52-8.33Zm-21.12-9.29c.36-.97.87-1.88,1.69-2.55,1.24-1.04,2.82-1.17,4.17-.14.82.63,1.35,1.44,1.74,2.38.81,1.96.81,3.95.21,5.94-.3.97-.8,1.87-1.56,2.58-1.22,1.13-2.85,1.41-4.3.36-.74-.54-1.24-1.25-1.65-2.06-.58-1.14-.73-2.35-.77-3.41,0-1.18.12-2.16.47-3.1Zm-10.14.06c.31-.98.84-1.87,1.63-2.55,1.25-1.08,2.84-1.26,4.23-.21.72.54,1.22,1.24,1.61,2.04.55,1.13.76,2.33.76,3.82,0,.65-.08,1.54-.38,2.39-.22.61-.48,1.22-.84,1.75-.59.9-1.36,1.61-2.46,1.85-.87.19-1.68.02-2.42-.47-.9-.59-1.49-1.43-1.91-2.41-.89-2.05-.88-4.13-.22-6.21Zm-2.65,15.19c-.88-.39-1.59-.97-2.2-1.72-.93-1.15-1.54-2.42-1.64-3.9-.04-.58.01-1.2.13-1.77.37-1.64,1.91-2.38,3.48-1.85.71.24,1.32.63,1.88,1.14.87.81,1.47,1.78,1.92,2.89.3.74.39,1.49.45,2.3-.03.29-.04.62-.11.93-.23,1.01-.74,1.81-1.77,2.15-.73.24-1.45.13-2.14-.17Zm22.18,9.88c-.71.66-1.57.89-2.5.98-.05,0-.11.02-.16.04h-1.27c-.1-.02-.19-.05-.28-.06-.82-.1-1.57-.41-2.3-.8-.32-.17-.64-.37-.98-.45-2.18-.49-4.32-.59-6.34.6-.7.41-1.49.6-2.29.71h-1.28c-.29-.05-.58-.1-.87-.15-.83-.14-1.53-.53-2.07-1.15-.37-.43-.52-.97-.56-1.52-.07-.88.14-1.69.67-2.41.02-.02.03-.05.04-.08.5-.8.98-1.62,1.51-2.4.54-.8,1.11-1.58,1.71-2.34.51-.66,1.06-1.31,1.64-1.92.45-.47.94-.93,1.48-1.31.77-.55,1.68-.83,2.62-.96,1.38-.18,2.73-.09,4.04.42.68.27,1.3.65,1.79,1.2.64.73,1.3,1.43,1.92,2.17.57.69,1.11,1.41,1.63,2.14.63.89,1.19,1.83,1.83,2.71.48.65.81,1.38.89,2.14.09.9-.14,1.77-.87,2.44Zm4.38-13.49c-.42.93-.95,1.8-1.7,2.49-.7.66-1.5,1.19-2.48,1.37-.98.17-1.98-.16-2.58-1.02-.48-.69-.57-1.44-.6-2.11.01-.89.12-1.64.41-2.35.39-.93.88-1.82,1.6-2.55.81-.83,1.74-1.49,2.94-1.61.86-.09,1.59.17,2.18.85.67.78.77,1.71.74,2.67-.02.78-.19,1.55-.51,2.26Z"/>
    <path class="cls-2" d="m420.07,50.62c-.71.66-1.57.89-2.5.98-.05,0-.11.02-.16.04h-1.27c-.1-.02-.19-.05-.28-.06-.82-.1-1.57-.41-2.3-.8-.32-.17-.64-.37-.98-.45-2.18-.49-4.32-.59-6.34.6-.7.41-1.49.6-2.29.71h-1.28c-.29-.05-.58-.1-.87-.15-.83-.14-1.53-.53-2.07-1.15-.37-.43-.52-.97-.56-1.52-.07-.88.14-1.69.67-2.41.02-.02.03-.05.04-.08.5-.8.98-1.62,1.51-2.4.54-.8,1.11-1.58,1.71-2.34.51-.66,1.06-1.31,1.64-1.92.45-.47.94-.93,1.48-1.31.77-.55,1.68-.83,2.62-.96,1.38-.18,2.73-.09,4.04.42.68.27,1.3.65,1.79,1.2.64.73,1.3,1.43,1.92,2.17.57.69,1.11,1.41,1.63,2.14.63.89,1.19,1.83,1.83,2.71.48.65.81,1.38.89,2.14.09.9-.14,1.77-.87,2.44Z"/>
    <path class="cls-2" d="m418.49,31.12c-.3.97-.8,1.87-1.56,2.58-1.22,1.13-2.85,1.41-4.3.36-.74-.54-1.24-1.25-1.65-2.06-.58-1.14-.73-2.35-.77-3.41,0-1.18.12-2.16.47-3.1.36-.97.87-1.88,1.69-2.55,1.24-1.04,2.82-1.17,4.17-.14.82.63,1.35,1.44,1.74,2.38.81,1.96.81,3.95.21,5.94Z"/>
    <path class="cls-2" d="m408.77,28.65c0,.65-.08,1.54-.38,2.39-.22.61-.48,1.22-.84,1.75-.59.9-1.36,1.61-2.46,1.85-.87.19-1.68.02-2.42-.47-.9-.59-1.49-1.43-1.91-2.41-.89-2.05-.88-4.13-.22-6.21.31-.98.84-1.87,1.63-2.55,1.25-1.08,2.84-1.26,4.23-.21.72.54,1.22,1.24,1.61,2.04.55,1.13.76,2.33.76,3.82Z"/>
    <path class="cls-2" d="m424.96,34.87c-.02.78-.19,1.55-.51,2.26-.42.93-.95,1.8-1.7,2.49-.7.66-1.5,1.19-2.48,1.37-.98.17-1.98-.16-2.58-1.02-.48-.69-.57-1.44-.6-2.11.01-.89.12-1.64.41-2.35.39-.93.88-1.82,1.6-2.55.81-.83,1.74-1.49,2.94-1.61.86-.09,1.59.17,2.18.85.67.78.77,1.71.74,2.67Z"/>
    <path class="cls-2" d="m401.91,37.83c-.03.29-.04.62-.11.93-.23,1.01-.74,1.81-1.77,2.15-.73.24-1.45.13-2.14-.17-.88-.39-1.59-.97-2.2-1.72-.93-1.15-1.54-2.42-1.64-3.9-.04-.58.01-1.2.13-1.77.37-1.64,1.91-2.38,3.48-1.85.71.24,1.32.63,1.88,1.14.87.81,1.47,1.78,1.92,2.89.3.74.39,1.49.45,2.3Z"/>
    <path class="cls-1" d="m459,58.41c-2.1.4-4.25.45-6.46.17-2.21-.28-4.25-.91-6.12-1.87-1.98-1.08-3.7-2.46-5.14-4.17-1.45-1.7-2.71-3.54-3.78-5.52-1.13-2.04-1.96-4.21-2.47-6.5-.51-2.29-.91-4.6-1.19-6.93-.23-1.81-.31-3.6-.25-5.36.06-1.76.14-3.54.25-5.35.11-1.98.31-3.92.59-5.82.28-1.9.71-3.78,1.28-5.65.28-1.08.64-2.12,1.06-3.14.42-1.02,1-1.93,1.74-2.72.85-.91,1.88-1.6,3.1-2.08,1.22-.48,2.45-.78,3.7-.89,1.76-.11,3.54.13,5.36.72,1.81.59,3.29,1.57,4.42,2.93.4.51.67,1.23.81,2.17.14.94.2,1.93.17,2.98-.03,1.05-.1,2.07-.21,3.06-.11.99-.23,1.8-.34,2.42,1.81.34,3.63.44,5.44.3,1.81-.14,3.62-.24,5.44-.3h.55c.2,0,.38.03.55.08.51.17.91.48,1.19.93.4.57.67,1.29.81,2.17.14.88.21,1.79.21,2.72s-.08,1.86-.25,2.76c-.17.91-.4,1.64-.68,2.21-.4.68-.82,1.22-1.27,1.62-.45.4-.98.71-1.57.93-.59.23-1.2.4-1.83.51-1.76.51-3.61.78-5.57.81-1.96.03-3.75-.33-5.4-1.06-.28.91-.48,1.83-.59,2.76-.11.93-.08,1.86.08,2.76.11.62.3,1.2.55,1.74.26.54.61,1.01,1.06,1.4.45.45,1.05.77,1.79.94.74.17,1.42.2,2.04.08.79-.11,1.57-.37,2.34-.77.76-.4,1.57-.68,2.42-.85,2.49-.68,4.56.03,6.21,2.12.96,1.25,1.63,2.69,2,4.33.37,1.64.35,3.23-.04,4.76-.11.62-.37,1.19-.76,1.7-.4.51-.82.99-1.28,1.45-1.36,1.3-2.89,2.45-4.59,3.44-1.7.99-3.48,1.66-5.35,2Z"/>
  </g>
  <g id="Pet">
    <path class="cls-1" d="m161.33,59.6c-.85.17-1.85.27-2.99.3-1.14.03-2.26-.04-3.37-.21s-2.14-.47-3.07-.89c-.94-.42-1.64-1.01-2.09-1.74-.4-.62-.64-1.3-.73-2.04-.08-.74-.13-1.47-.13-2.21-.06-1.47-.01-2.96.13-4.46.14-1.5.24-2.99.3-4.46.11-4.7.17-9.41.17-14.11s-.06-9.41-.17-14.11c-.45-.17-.95-.24-1.49-.21-.54.03-1.03-.04-1.49-.21-.62-.17-1.18-.48-1.66-.94-.48-.45-.86-.99-1.15-1.61-.4-.79-.67-1.67-.81-2.64-.14-.96-.17-1.91-.08-2.85.08-.93.33-1.81.72-2.63.4-.82.94-1.49,1.61-2,.96-.74,2.05-1.22,3.27-1.44,1.22-.23,2.43-.37,3.62-.43,4.04-.23,8.07-.27,12.08-.13,4.01.14,8,.47,11.96.98,2.04.28,4.07.72,6.08,1.32,2.01.6,3.84,1.52,5.48,2.76,1.98,1.53,3.4,3.46,4.25,5.78.91,2.38,1.47,4.9,1.7,7.57.23,2.66.03,5.24-.59,7.73-.34,1.3-.82,2.59-1.45,3.87-.62,1.28-1.39,2.42-2.29,3.44-1.53,1.64-3.26,2.83-5.19,3.57-2.72,1.13-5.58,1.9-8.58,2.29-3,.4-6.01.48-9.01.25,0,1.02.04,2.38.13,4.08.09,1.7.11,3.46.09,5.27-.03,1.81-.17,3.51-.43,5.1-.26,1.59-.73,2.75-1.41,3.49-.46.45-.98.79-1.58,1.02s-1.21.4-1.84.51Zm4.7-37.15c.4,1.13,1.01,2.1,1.83,2.89.82.79,1.73,1.36,2.72,1.7.99.34,2,.38,3.02.13,1.02-.25,1.87-.86,2.55-1.83.79-1.13,1.22-2.47,1.27-4,.06-1.53-.23-2.92-.85-4.17-.28-.74-.71-1.42-1.27-2.04-.57-.62-1.22-1.1-1.96-1.44-1.02-.57-2.1-.79-3.23-.68-1.02.11-1.88.48-2.59,1.1-.71.62-1.23,1.39-1.57,2.29-.34.91-.5,1.88-.47,2.93.03,1.05.21,2.08.55,3.1Z"/>
    <path class="cls-1" d="m225.53,58.41c-1.59.74-3.26,1.23-5.02,1.49-1.76.25-3.51.38-5.27.38-1.93-.06-3.85-.24-5.78-.55-1.93-.31-3.77-.86-5.53-1.66-1.42-.62-2.72-1.45-3.91-2.46-1.19-1.02-2.24-2.15-3.15-3.4-1.19-1.59-2.14-3.33-2.85-5.23-.71-1.9-1.09-3.84-1.15-5.82-.11-2.72.33-5.41,1.32-8.07.99-2.66,2.25-5.1,3.78-7.31,1.76-2.44,3.9-4.31,6.42-5.61,2.52-1.3,5.14-2,7.86-2.08,2.72-.08,5.38.42,7.99,1.53,2.61,1.1,4.84,2.85,6.71,5.23.85,1.08,1.59,2.28,2.21,3.61.62,1.33.99,2.71,1.11,4.12.06.96-.03,1.96-.25,2.97-.23,1.02-.6,1.96-1.11,2.81-.62,1.02-1.42,1.78-2.38,2.29-.68.28-1.4.47-2.17.55-.77.09-1.54.1-2.34.04-1.13-.11-2.25-.25-3.36-.42-1.11-.17-2.22-.31-3.36-.42-.34,0-.75-.01-1.23-.04-.48-.03-.98-.03-1.49,0-.51.03-.99.1-1.45.21-.45.11-.77.28-.94.51-.28.34-.4.79-.34,1.36.06.57.23,1.05.51,1.44.4.51.95.89,1.66,1.15.71.25,1.46.41,2.25.47.79.06,1.6.06,2.42,0,.82-.06,1.54-.17,2.17-.34,1.3-.28,2.61-.67,3.91-1.15,1.3-.48,2.61-.61,3.91-.38,1.13.17,2.1.61,2.89,1.32.79.71,1.39,1.54,1.78,2.51.4.96.57,2.01.51,3.14-.06,1.13-.37,2.21-.94,3.23-.57,1.02-1.33,1.91-2.29,2.68-.96.76-2.01,1.4-3.14,1.91Zm-10.12-22.78c.62.11,1.27.18,1.96.21.68.03,1.33-.01,1.96-.13.96-.28,1.61-.86,1.96-1.74.34-.88.23-1.71-.34-2.51-.4-.74-1.05-1.3-1.95-1.7-.85-.45-1.76-.71-2.72-.77-.96-.06-1.93.03-2.89.25-.74.17-1.45.5-2.12.98-.68.48-1.16,1.06-1.45,1.74-.23.62-.11,1.16.34,1.61.45.46.96.79,1.53,1.02,1.19.51,2.44.85,3.74,1.02Z"/>
    <path class="cls-1" d="m258.85,59.26c-2.1.4-4.25.45-6.46.17-2.21-.28-4.25-.91-6.12-1.87-1.98-1.08-3.7-2.46-5.14-4.17-1.45-1.7-2.71-3.54-3.78-5.53-1.13-2.04-1.96-4.21-2.46-6.5-.51-2.3-.91-4.6-1.19-6.93-.23-1.81-.31-3.6-.26-5.35.06-1.76.14-3.54.26-5.35.11-1.98.31-3.92.59-5.82.28-1.9.71-3.78,1.27-5.65.28-1.08.64-2.12,1.06-3.15.43-1.02,1.01-1.93,1.74-2.72.85-.91,1.88-1.6,3.1-2.08,1.22-.48,2.45-.78,3.7-.89,1.76-.11,3.54.13,5.36.72,1.81.59,3.29,1.57,4.42,2.93.4.51.67,1.23.81,2.17.14.94.2,1.93.17,2.98-.03,1.05-.1,2.07-.21,3.06-.11.99-.23,1.8-.34,2.42,1.81.34,3.63.44,5.44.3,1.81-.14,3.63-.24,5.44-.3h.55c.2,0,.38.03.55.08.51.17.91.48,1.19.94.4.57.67,1.29.81,2.17.14.88.21,1.79.21,2.72s-.08,1.86-.25,2.76c-.17.91-.4,1.64-.68,2.21-.4.68-.82,1.22-1.28,1.61-.45.4-.98.71-1.57.94-.59.23-1.2.4-1.83.51-1.76.51-3.61.78-5.57.81-1.96.03-3.75-.33-5.4-1.06-.28.91-.48,1.83-.6,2.76-.11.94-.08,1.86.08,2.76.11.62.3,1.2.55,1.74.25.54.61,1.01,1.06,1.4.45.46,1.05.77,1.79.94.74.17,1.42.2,2.04.08.79-.11,1.57-.37,2.34-.76.76-.4,1.57-.68,2.42-.85,2.49-.68,4.56.03,6.21,2.12.96,1.25,1.63,2.69,2,4.33.37,1.64.35,3.23-.04,4.76-.11.62-.37,1.19-.76,1.7-.4.51-.82.99-1.28,1.45-1.36,1.3-2.89,2.45-4.59,3.44-1.7.99-3.49,1.66-5.36,2Z"/>
  </g>
</svg>