<?xml version="1.0" encoding="iso-8859-1"?>
<!-- Uploaded to: SVG Repo, www.svgrepo.com, Generator: SVG Repo Mixer Tools -->
<svg fill="#000000" height="800px" width="800px" version="1.1" id="Layer_1" xmlns="http://www.w3.org/2000/svg" xmlns:xlink="http://www.w3.org/1999/xlink" 
	 viewBox="0 0 512 512" xml:space="preserve">
<g>
	<g>
		<g>
			<path d="M445.579,36.59H66.421C29.796,36.59,0,66.387,0,103.012v305.977c0,36.625,29.796,66.421,66.421,66.421h379.158
				c36.625,0,66.421-29.796,66.421-66.421V103.012C512,66.387,482.204,36.59,445.579,36.59z M492,408.987
				c0,25.597-20.824,46.421-46.421,46.421H66.421C40.824,455.409,20,434.584,20,408.987V103.012
				C20,77.414,40.824,56.59,66.421,56.59h379.158c25.597,0,46.421,20.824,46.421,46.421V408.987z"/>
			<path d="M46.455,99.544c-5.522,0-10,4.478-10,10v54.951c0,5.522,4.478,10,10,10c5.522,0,10-4.478,10-10v-54.951
				C56.455,104.021,51.978,99.544,46.455,99.544z"/>
			<path d="M46.455,198.497c-5.522,0-10,4.478-10,10V400.5c0,5.522,4.478,10,10,10c5.522,0,10-4.478,10-10V208.497
				C56.455,202.976,51.978,198.497,46.455,198.497z"/>
			<path d="M149,83.044c0-5.522-4.478-10-10-10H72.955c-5.522,0-10,4.478-10,10c0,5.522,4.478,10,10,10H139
				C144.522,93.044,149,88.567,149,83.044z"/>
			<path d="M362.394,191.958h-42.353v-42.353c0-12.964-10.547-23.511-23.51-23.511h-81.063c-12.963,0-23.51,10.547-23.51,23.511
				v42.353h-42.353c-12.964,0-23.511,10.547-23.511,23.51v81.063c0,12.963,10.547,23.51,23.511,23.51h42.353v42.353
				c0,12.964,10.547,23.511,23.51,23.511h81.063c12.963,0,23.51-10.547,23.51-23.511v-42.353h42.353
				c12.964,0,23.511-10.547,23.511-23.51v-81.063C385.904,202.505,375.357,191.958,362.394,191.958z M365.904,296.531
				c0,1.902-1.607,3.51-3.511,3.51H310.04c-5.522,0-10,4.478-10,10v52.353c0,1.903-1.607,3.511-3.51,3.511h-81.063
				c-1.902,0-3.51-1.607-3.51-3.511v-52.353c0-5.522-4.478-10-10-10h-52.353c-1.903,0-3.511-1.607-3.511-3.51v-81.063
				c0-1.902,1.607-3.51,3.511-3.51h52.353c5.522,0,10-4.478,10-10v-52.353c0-1.903,1.607-3.511,3.51-3.511h81.063
				c1.902,0,3.51,1.607,3.51,3.511v52.353c0,5.522,4.478,10,10,10h52.353c1.903,0,3.511,1.607,3.511,3.51V296.531z"/>
		</g>
	</g>
</g>
</svg>